<?xml version="1.0" standalone="no"?>
<!DOCTYPE svg PUBLIC "-//W3C//DTD SVG 20010904//EN"
 "http://www.w3.org/TR/2001/REC-SVG-20010904/DTD/svg10.dtd">
<svg version="1.0" xmlns="http://www.w3.org/2000/svg"
 width="385.000000pt" height="324.000000pt" viewBox="0 0 385.000000 324.000000"
 preserveAspectRatio="xMidYMid meet">

<g transform="translate(0.000000,324.000000) scale(0.100000,-0.100000)"
fill="#000000" stroke="none">
<path d="M1680 3085 c-8 -2 -55 -9 -105 -15 -287 -37 -578 -243 -723 -511 -89
-165 -117 -283 -117 -494 0 -173 13 -253 61 -375 27 -67 30 -73 74 -153 72
-131 263 -312 393 -373 30 -14 40 -15 50 -5 14 15 10 18 -90 82 -123 78 -280
246 -335 359 -39 81 -83 198 -99 260 -17 73 -17 337 0 410 34 138 108 292 187
391 140 172 297 282 499 345 85 28 99 29 275 29 176 0 190 -1 275 -29 101 -32
240 -100 300 -148 22 -18 79 -72 128 -120 48 -48 92 -88 97 -88 24 0 20 32 -8
64 -16 19 -31 38 -33 43 -2 4 -42 40 -88 80 -100 86 -209 150 -328 192 -121
42 -335 71 -413 56z"/>
<path d="M1513 2919 c-37 -12 -63 -25 -63 -34 0 -20 20 -23 63 -8 21 7 73 19
115 26 41 7 78 19 80 25 6 20 -124 14 -195 -9z"/>
<path d="M1210 2767 c-84 -64 -97 -76 -154 -152 -104 -136 -167 -288 -189
-458 -16 -122 5 -276 53 -392 4 -11 15 -39 23 -61 15 -38 51 -101 78 -132 8
-10 14 -11 22 -3 8 8 4 23 -12 53 -60 111 -72 139 -97 223 -24 78 -27 108 -28
220 0 114 3 141 28 220 15 50 33 101 40 115 67 133 87 161 181 256 55 56 109
106 119 111 12 7 17 16 13 27 -9 23 -16 21 -77 -27z"/>
<path d="M1985 2713 c-246 -52 -363 -94 -384 -139 -6 -14 -11 -44 -10 -67 l1
-42 23 49 c27 57 60 79 141 96 71 15 286 85 323 105 l26 14 -25 0 c-14 -1 -56
-8 -95 -16z"/>
<path d="M2129 2710 c-95 -31 -240 -110 -202 -110 4 0 58 13 118 30 61 16 122
30 137 30 26 0 117 -39 173 -75 54 -35 294 -215 300 -226 4 -6 9 -37 12 -70 3
-32 10 -59 14 -59 5 0 9 3 9 8 1 4 3 40 6 79 l5 73 -63 63 c-152 152 -272 234
-381 261 -35 9 -65 16 -68 15 -2 0 -29 -9 -60 -19z"/>
<path d="M1508 2444 c-26 -13 -48 -42 -48 -61 0 -4 17 -8 37 -8 48 0 49 -16 3
-47 -47 -32 -70 -73 -51 -90 8 -7 11 -8 8 -2 -10 17 29 48 123 99 94 52 125
75 99 75 -8 0 -19 -4 -24 -8 -22 -20 -94 -41 -101 -31 -3 6 -20 17 -38 24
l-31 14 39 16 c21 9 50 15 65 15 39 -3 48 0 26 10 -31 13 -77 11 -107 -6z"/>
<path d="M1765 2410 c-26 -10 -65 -48 -65 -61 0 -6 15 -1 34 10 50 31 113 28
164 -8 112 -82 169 -256 126 -387 -25 -76 -34 -81 -86 -50 -57 33 -182 76
-222 76 -37 0 -25 -13 28 -30 71 -23 185 -79 215 -106 16 -14 38 -43 47 -63
24 -48 32 -16 10 38 -14 37 -14 39 9 61 44 41 69 117 70 205 0 71 -4 88 -33
147 -37 72 -102 141 -157 164 -37 15 -108 18 -140 4z"/>
<path d="M2025 2390 c-2 -4 4 -13 13 -21 9 -9 35 -35 58 -60 22 -25 63 -61 91
-82 88 -64 125 -125 133 -217 6 -65 6 -65 20 -35 8 17 14 57 15 90 1 50 9 76
48 154 57 117 52 134 -45 160 -47 13 -326 22 -333 11z m348 -80 c10 -9 -22
-150 -33 -150 -4 0 -13 14 -20 31 -7 16 -33 51 -57 76 -35 35 -42 48 -31 55
15 10 129 1 141 -12z"/>
<path d="M2576 2298 c10 -18 20 -49 24 -68 7 -34 47 -177 96 -346 30 -101 30
-124 -1 -186 -32 -63 -43 -79 -109 -152 -99 -111 -116 -130 -171 -201 -135
-173 -207 -286 -192 -301 7 -7 336 309 434 417 121 133 173 223 173 297 0 37
-29 141 -56 200 -13 29 -24 57 -24 62 0 6 -4 18 -10 28 -5 9 -30 62 -55 116
-49 109 -88 166 -111 166 -12 0 -12 -5 2 -32z"/>
<path d="M1469 2231 c-106 -61 -218 -140 -229 -160 -5 -11 -10 -45 -10 -77 0
-45 6 -68 31 -110 50 -89 73 -89 34 0 -29 65 -34 146 -10 166 17 14 21 0 5
-16 -14 -14 1 -53 30 -79 l23 -20 -12 22 c-37 71 29 124 90 74 l24 -19 -26
-11 c-15 -5 -36 -23 -48 -39 -22 -31 -29 -92 -11 -92 6 0 10 10 10 23 0 27 20
50 67 77 39 23 52 62 29 85 -22 22 -75 37 -108 29 -37 -8 -35 -1 10 28 66 44
194 158 177 157 -5 0 -40 -17 -76 -38z"/>
<path d="M1663 2249 c-7 -7 -13 -25 -13 -40 0 -20 -10 -33 -41 -53 -22 -15
-39 -29 -37 -31 2 -2 48 12 103 32 84 29 114 35 185 35 l85 0 -45 14 c-25 7
-58 21 -74 30 -38 22 -147 30 -163 13z m125 -24 c3 -3 -4 -5 -16 -5 -11 0 -27
-3 -36 -6 -11 -4 -16 0 -16 14 0 18 4 20 31 12 18 -5 34 -12 37 -15z"/>
<path d="M1580 1977 c0 -3 29 -22 65 -41 98 -56 170 -155 182 -253 5 -46 4
-50 -18 -56 -13 -4 -41 -7 -61 -7 -82 0 -269 -81 -283 -122 -16 -45 -42 -18
-86 90 -8 17 -17 32 -21 32 -16 0 -7 -50 21 -132 47 -134 53 -148 61 -148 5 0
19 24 33 53 29 62 66 101 127 132 62 31 212 77 221 68 4 -4 9 -19 11 -33 l4
-25 12 28 c7 16 12 67 12 114 0 77 -3 91 -31 139 -33 59 -96 118 -147 139 -37
16 -102 30 -102 22z"/>
<path d="M2242 1865 c0 -95 -5 -113 -54 -210 -30 -60 -112 -165 -128 -165 -5
0 -4 15 1 34 5 19 6 50 1 72 l-9 39 -7 -60 c-8 -68 -24 -124 -39 -143 -23 -29
6 -23 59 12 78 52 127 108 171 194 47 92 54 168 25 257 l-20 60 0 -90z"/>
<path d="M1344 1825 c-62 -48 -83 -168 -45 -251 19 -43 51 -76 37 -38 -4 10
-10 47 -13 81 -7 74 13 138 52 166 25 18 26 18 68 -16 55 -44 141 -97 156 -97
20 0 -7 31 -97 108 -49 42 -93 72 -105 72 -12 0 -36 -11 -53 -25z"/>
<path d="M2546 1784 c-3 -9 -6 -25 -6 -37 0 -43 -49 -127 -107 -182 -32 -31
-102 -90 -155 -131 -231 -177 -421 -398 -462 -536 -29 -101 -15 -121 25 -35
28 62 258 297 469 478 148 128 182 165 229 253 27 51 31 69 31 132 0 70 -10
94 -24 58z"/>
<path d="M1743 1448 c-48 -51 -112 -166 -135 -243 l-21 -70 -29 60 c-15 33
-31 81 -34 108 -8 59 -19 60 -27 4 -8 -58 16 -166 51 -230 57 -102 71 -126
101 -168 36 -50 37 -45 20 93 -19 142 7 257 92 421 34 64 28 73 -18 25z"/>
<path d="M197 686 c-21 -8 -47 -22 -57 -31 -23 -21 -35 -74 -26 -110 8 -33 71
-78 155 -110 107 -40 142 -98 92 -148 -17 -18 -33 -22 -80 -22 -51 0 -66 5
-105 32 -35 25 -47 29 -55 19 -8 -9 -3 -19 17 -38 42 -40 87 -58 142 -58 97 0
150 41 150 116 0 57 -29 85 -147 140 -54 24 -104 52 -110 61 -18 24 -16 67 5
86 47 43 154 37 253 -14 29 -14 45 -17 52 -10 16 16 -6 35 -72 65 -73 32 -162
42 -214 22z"/>
<path d="M1427 693 c-9 -8 -9 -420 -1 -450 4 -14 14 -23 25 -23 18 0 19 11 19
224 0 123 -3 231 -6 240 -6 16 -26 21 -37 9z"/>
<path d="M2516 643 c-3 -21 -6 -52 -6 -70 0 -51 -9 -63 -47 -63 -27 0 -34 -4
-31 -17 2 -12 14 -19 37 -21 l34 -3 -6 -105 c-4 -66 -3 -113 3 -125 12 -21 61
-26 105 -9 38 14 26 36 -18 32 -19 -1 -39 2 -42 9 -4 6 -4 53 0 104 l7 94 51
3 c40 2 53 7 55 21 3 14 -4 17 -47 17 l-51 0 0 85 c0 76 -2 85 -19 85 -14 0
-20 -10 -25 -37z"/>
<path d="M914 509 c-7 -12 4 -252 13 -275 3 -8 14 -14 26 -14 19 0 20 4 13
136 -4 74 -10 142 -13 150 -6 17 -29 19 -39 3z"/>
<path d="M1035 511 c-31 -13 -55 -45 -46 -60 7 -11 13 -11 32 3 36 25 65 20
92 -16 13 -18 27 -41 31 -51 5 -17 9 -16 44 11 48 38 73 45 97 28 22 -16 26
-71 13 -159 -7 -46 -7 -48 15 -45 26 4 34 32 36 126 1 76 -17 116 -60 131 -34
12 -83 -3 -108 -33 -13 -15 -16 -13 -38 19 -13 20 -36 40 -49 46 -29 10 -32
10 -59 0z"/>
<path d="M1575 513 c-47 -10 -76 -26 -71 -40 4 -8 6 -16 6 -19 0 -2 12 1 26 6
69 27 127 3 144 -59 24 -89 -42 -160 -122 -132 -42 15 -48 14 -48 -7 0 -38 95
-56 148 -28 55 28 67 52 67 130 0 77 -16 113 -58 134 -29 14 -67 20 -92 15z"/>
<path d="M1875 505 c-52 -19 -82 -54 -90 -108 -15 -97 31 -165 120 -175 34 -3
54 1 89 21 l46 26 6 -25 c4 -15 13 -24 26 -24 20 0 20 4 14 118 -9 156 -13
172 -38 172 -20 0 -21 -4 -15 -94 6 -87 5 -94 -16 -114 -52 -49 -116 -54 -158
-13 -78 79 7 224 104 176 40 -20 61 -4 32 24 -28 27 -73 33 -120 16z"/>
<path d="M2193 511 c-12 -6 -30 -22 -39 -37 -27 -40 -4 -71 81 -114 54 -27 71
-41 73 -59 6 -42 -52 -55 -109 -26 -29 15 -49 13 -49 -5 0 -5 15 -18 34 -29
48 -30 119 -29 151 4 50 50 27 98 -70 144 -69 32 -85 51 -65 76 16 20 90 19
137 0 44 -19 53 -19 53 0 0 35 -144 69 -197 46z"/>
<path d="M2805 513 c-57 -15 -105 -82 -105 -148 0 -48 34 -111 70 -130 16 -8
49 -15 75 -15 38 0 45 3 45 20 0 17 -7 20 -44 20 -60 0 -96 40 -96 107 0 38 5
50 35 80 33 33 39 35 80 30 50 -5 68 8 40 30 -19 13 -61 15 -100 6z"/>
<path d="M3077 514 c-9 -9 -9 -171 -1 -241 6 -43 10 -53 25 -53 18 0 19 9 18
118 -1 64 -4 130 -8 146 -6 29 -21 42 -34 30z"/>
<path d="M3211 510 c-44 -11 -70 -35 -53 -52 9 -9 17 -9 37 0 41 19 92 15 116
-9 21 -21 21 -28 16 -125 -6 -97 -6 -104 12 -104 35 0 54 160 27 225 -24 57
-85 83 -155 65z"/>
<path d="M3536 510 c-62 -19 -96 -73 -96 -153 0 -63 24 -101 76 -123 65 -27
179 -11 172 25 -3 10 -11 14 -23 11 -11 -3 -44 -5 -72 -5 -44 0 -57 5 -80 27
-15 15 -24 30 -21 33 3 4 56 10 118 15 61 4 116 12 122 18 6 6 8 26 4 46 -16
86 -106 134 -200 106z m131 -65 c13 -14 23 -34 23 -44 0 -16 -12 -20 -95 -26
-51 -4 -98 -4 -104 -1 -17 11 10 67 43 87 42 27 103 20 133 -16z"/>
<path d="M545 500 c-7 -12 50 -129 98 -200 27 -41 29 -47 15 -70 -69 -121 -73
-130 -59 -139 18 -12 29 2 118 149 81 132 133 233 133 255 0 39 -33 6 -84 -85
-31 -54 -60 -102 -65 -104 -4 -3 -36 42 -70 99 -61 103 -73 116 -86 95z"/>
<path d="M2944 456 c-3 -8 -1 -23 5 -35 19 -35 13 -87 -14 -119 -22 -27 -23
-31 -9 -43 14 -11 20 -9 45 18 39 45 46 90 20 147 -20 46 -37 58 -47 32z"/>
</g>
</svg>
